<svg xmlns="http://www.w3.org/2000/svg" viewBox="0 0 32 32" fill="none">
  <!-- CRUNCH compact logo — 32px optimized -->
  <!-- Top bar -->
  <rect x="6" y="2" width="20" height="2" rx="1" fill="#f59e0b"/>
  <!-- Bottom bar -->
  <rect x="6" y="28" width="20" height="2" rx="1" fill="#f59e0b"/>
  <!-- Top glass -->
  <path d="M8 4 L8 8 Q8 12 13 15.5 L15 17 L17 17 L19 15.5 Q24 12 24 8 L24 4"
        stroke="#f59e0b" stroke-width="1.5" stroke-linejoin="round" fill="none"/>
  <!-- Bottom glass -->
  <path d="M8 28 L8 24 Q8 20 13 16.5 L15 15 L17 15 L19 16.5 Q24 20 24 24 L24 28"
        stroke="#f59e0b" stroke-width="1.5" stroke-linejoin="round" fill="none"/>
  <!-- Sand top -->
  <path d="M10 7 Q10 10 14 13 L16 14.5 L18 13 Q22 10 22 7 L22 5 L10 5 Z"
        fill="#f59e0b" opacity="0.3"/>
  <!-- Sand bottom -->
  <path d="M10 27 L10 25 Q10 22 14 19 L16 17.5 L18 19 Q22 22 22 25 L22 27 Z"
        fill="#f59e0b" opacity="0.5"/>
  <!-- Sand stream -->
  <rect x="15.25" y="14.5" width="1.5" height="3" rx="0.75" fill="#f59e0b" opacity="0.7"/>
  <!-- Left chevron -->
  <polyline points="2,14.5 4.5,16 2,17.5" stroke="#f59e0b" stroke-width="1.2" stroke-linecap="round" stroke-linejoin="round" fill="none"/>
  <!-- Right chevron -->
  <polyline points="30,14.5 27.5,16 30,17.5" stroke="#f59e0b" stroke-width="1.2" stroke-linecap="round" stroke-linejoin="round" fill="none"/>
</svg>
